HIERARCHY
ROOT Pelvis
{
	OFFSET 0.000000 0.000000 0.000000
	CHANNELS 6 Xposition Yposition Zposition Zrotation Yrotation Xrotation 
	JOINT Left_hip
	{
		OFFSET 0.076090 -0.089427 -0.010735
		CHANNELS 3 Zrotation Yrotation Xrotation
		JOINT Left_knee
		{
			OFFSET 0.030200 -0.359518 -0.003501
			CHANNELS 3 Zrotation Yrotation Xrotation
			JOINT Left_ankle
			{
				OFFSET -0.011005 -0.371022 -0.045888
				CHANNELS 3 Zrotation Yrotation Xrotation
				JOINT Left_foot
				{
					OFFSET 0.023930 -0.052103 0.111084
					CHANNELS 3 Zrotation Yrotation Xrotation
					End Site
					{
						OFFSET 0.000000 0.000000 0.000000
					}
				}
			}
		}
	}
	JOINT Right_hip
	{
		OFFSET -0.073836 -0.088112 -0.007709
		CHANNELS 3 Zrotation Yrotation Xrotation
		JOINT Right_knee
		{
			OFFSET -0.035715 -0.367809 -0.006536
			CHANNELS 3 Zrotation Yrotation Xrotation
			JOINT Right_ankle
			{
				OFFSET 0.013718 -0.371958 -0.043815
				CHANNELS 3 Zrotation Yrotation Xrotation
				JOINT Right_foot
				{
					OFFSET -0.021936 -0.046387 0.114542
					CHANNELS 3 Zrotation Yrotation Xrotation
					End Site
					{
						OFFSET 0.000000 0.000000 0.000000
					}
				}
			}
		}
	}
	JOINT Spine1
	{
		OFFSET -0.001865 0.102064 -0.019455
		CHANNELS 3 Zrotation Yrotation Xrotation
		JOINT Spine2
		{
			OFFSET 0.003082 0.129260 -0.001938
			CHANNELS 3 Zrotation Yrotation Xrotation
			JOINT Spine3
			{
				OFFSET 0.001104 0.048093 0.026561
				CHANNELS 3 Zrotation Yrotation Xrotation
				JOINT Neck
				{
					OFFSET -0.002010 0.204222 -0.047183
					CHANNELS 3 Zrotation Yrotation Xrotation
					JOINT Head
					{
						OFFSET 0.005050 0.063649 0.048489
						CHANNELS 3 Zrotation Yrotation Xrotation
						End Site
						{
							OFFSET 0.000000 0.000000 0.000000
						}
					}
				}
				JOINT Left_collar
				{
					OFFSET 0.072979 0.114065 -0.031633
					CHANNELS 3 Zrotation Yrotation Xrotation
					JOINT Left_shoulder
					{
						OFFSET 0.083419 0.032092 -0.006530
						CHANNELS 3 Zrotation Yrotation Xrotation
						JOINT Left_elbow
						{
							OFFSET 0.239393 -0.012014 -0.025060
							CHANNELS 3 Zrotation Yrotation Xrotation
							JOINT Left_wrist
							{
								OFFSET 0.227297 0.008116 0.000384
								CHANNELS 3 Zrotation Yrotation Xrotation
								JOINT Left_palm
								{
									OFFSET 0.074607 -0.009248 -0.012277
									CHANNELS 3 Zrotation Yrotation Xrotation
									End Site
									{
										OFFSET 0.000000 0.000000 0.000000
									}
								}
							}
						}
					}
				}
				JOINT Right_collar
				{
					OFFSET -0.074980 0.111880 -0.037894
					CHANNELS 3 Zrotation Yrotation Xrotation
					JOINT Right_shoulder
					{
						OFFSET -0.087565 0.034353 -0.009323
						CHANNELS 3 Zrotation Yrotation Xrotation
						JOINT Right_elbow
						{
							OFFSET -0.236838 -0.013719 -0.019794
							CHANNELS 3 Zrotation Yrotation Xrotation
							JOINT Right_wrist
							{
								OFFSET -0.235053 0.006433 -0.003853
								CHANNELS 3 Zrotation Yrotation Xrotation
								JOINT Right_palm
								{
									OFFSET -0.075499 -0.006894 -0.009792
									CHANNELS 3 Zrotation Yrotation Xrotation
									End Site
									{
										OFFSET 0.000000 0.000000 0.000000
									}
								}
							}
						}
					}
				}
			}
		}
	}
}
MOTION
Frames: 7
Frame Time: 0.100000
-0.010865 0.391116 0.152899 -174.725477 36.902527 -22.741101 4.783860 -8.953235 -62.184351 -6.896152 19.490942 126.247188 12.772044 5.527084 -26.977893 -6.997268 12.750136 -23.563198 -11.866334 -6.184685 14.066520 11.474274 2.021667 111.699665 -3.962974 -0.197121 -28.165482 6.918441 -3.532503 -21.003993 -2.258406 12.554252 11.384064 12.366281 -8.162834 -7.184493 -0.958547 2.408919 0.328155 -11.859889 16.411865 13.125798 -21.254495 -6.094504 22.884946 15.606892 -21.283081 -9.524734 1.093391 -28.209450 -14.564573 90.016003 -79.334497 -56.183066 36.860214 -26.570166 15.465487 -13.727117 3.950773 -4.927850 12.311686 23.230426 -2.958810 58.930293 27.201638 26.725501 -141.432347 71.129305 -109.800906 -45.350601 8.533683 -11.539093 13.452541 7.460479 -2.031733 
-0.012689 0.390221 0.163676 -174.634249 36.748681 -23.658546 4.902674 -8.415913 -59.711967 -6.970184 19.410073 126.818528 12.723235 5.352789 -27.927563 -7.147885 12.909314 -24.237398 -11.681301 -6.336267 17.304479 11.725531 2.546519 109.502386 -4.487065 -0.892276 -29.265154 7.046644 -3.299254 -21.021977 -2.552093 12.042951 8.000591 12.995817 -8.628518 -7.552350 -0.996185 1.718410 0.207158 -11.333509 16.797969 14.615220 -21.816299 -4.287394 24.423091 13.662958 -19.595626 -7.894251 0.598497 -28.200230 -14.901978 117.640548 -78.099981 -83.735570 37.286674 -25.981437 13.151058 -13.281620 3.959706 -2.837396 13.892390 20.340332 -2.555823 59.287279 25.113450 28.591841 -162.216466 67.899097 -127.731989 -45.556091 9.208938 -9.914823 13.347309 7.676112 -0.689785 
-0.013217 0.389270 0.170990 -174.351441 36.264731 -25.002564 4.962349 -7.727247 -57.761819 -7.256742 19.161885 127.582255 11.824745 4.333583 -26.891834 -6.603568 12.920200 -24.665639 -11.778890 -6.434711 20.006242 11.690553 3.194361 108.286046 -4.476495 -1.863412 -29.127435 6.563649 -3.176070 -21.513618 -2.516538 12.062631 6.455590 13.268913 -8.851594 -7.201458 -0.892575 1.568945 -0.065417 -11.317374 16.675784 14.502662 -21.717526 -3.490400 24.073441 12.968105 -19.179442 -7.406056 0.821584 -27.107923 -15.460755 120.098524 -77.516618 -85.940731 37.412412 -26.160502 14.249372 -13.969889 3.668934 -3.426788 14.241926 19.419711 -2.459918 58.463842 23.498589 28.003856 -166.796916 64.111089 -131.330754 -45.339307 9.771751 -10.303637 13.520507 7.618868 -0.434252 
-0.015094 0.387751 0.177229 -173.813436 35.828085 -25.588555 4.897105 -7.508033 -56.575057 -7.363682 19.128278 128.163990 11.081591 3.588825 -25.717040 -6.279209 12.272159 -24.848700 -12.352621 -6.410801 21.629081 11.132487 3.573008 107.415872 -4.190187 -2.474502 -28.307101 6.691222 -3.552893 -21.903682 -2.583985 12.198795 4.979784 13.690534 -8.928072 -7.367908 -0.803188 1.514507 -0.349361 -11.411926 16.880227 14.789665 -21.781909 -2.678555 23.899782 12.425155 -18.820572 -6.922633 1.062268 -26.636658 -15.050294 110.981176 -79.288721 -77.335398 35.887076 -26.440238 15.002409 -14.243756 3.616971 -3.928788 14.966535 18.400853 -2.205715 57.477256 22.534136 27.792441 -166.759453 63.775801 -131.709829 -44.431150 9.683848 -11.333383 13.212409 7.458341 -0.267117 
-0.017259 0.388335 0.180787 -174.142945 35.672670 -26.664478 4.673665 -7.413396 -55.510675 -7.484867 18.894547 128.809749 10.324786 3.927818 -25.228186 -5.598650 11.442698 -24.847849 -12.220628 -6.612540 23.099309 11.215105 3.827765 106.938042 -3.580147 -3.240565 -27.987756 5.624677 -3.040502 -21.972592 -2.320967 12.139710 4.364134 14.285438 -9.210659 -7.577473 -0.454771 1.412499 -0.227373 -11.829743 16.960378 14.135641 -21.541450 -2.314263 23.428453 12.757004 -19.186976 -7.000454 2.096663 -25.971215 -14.758829 102.260817 -81.063901 -69.188016 36.949782 -27.251579 15.582275 -14.612451 3.356275 -4.488286 15.273992 18.129299 -2.021404 55.794996 20.842161 27.220126 -166.527218 66.044965 -132.384686 -45.499038 10.046213 -11.008293 13.354761 7.492535 -0.718675 
-0.019649 0.388724 0.182401 -174.559070 35.727473 -27.133965 4.393767 -7.585857 -54.698494 -7.776811 18.687371 128.879143 10.526924 4.344738 -26.057579 -5.892438 11.250439 -25.016560 -12.169012 -6.725548 23.844714 11.567403 3.997076 106.400099 -2.698331 -3.446740 -28.123293 4.062476 -2.041056 -22.016343 -2.269448 12.049809 3.501573 14.979147 -9.501511 -7.779862 -0.189252 1.137538 -0.091122 -11.781295 17.608052 13.846704 -21.619446 -2.332493 23.646566 12.743089 -19.508279 -7.144624 3.818988 -26.548781 -15.472820 89.247134 -82.424985 -56.787327 34.329841 -27.251037 16.923689 -14.438354 3.176986 -4.278737 16.532077 17.026393 -1.442337 54.352498 18.470693 26.910449 -167.679709 68.625606 -134.324471 -45.457214 10.088820 -11.532830 14.044767 7.675370 -0.909266 
-0.021297 0.388778 0.182837 -174.701999 35.356075 -27.233176 4.260618 -7.271333 -54.256338 -8.057301 18.541170 128.889488 10.403189 4.715196 -26.504253 -5.634025 10.421329 -24.871113 -12.174595 -6.843902 23.896049 11.743861 4.283759 106.420140 -1.746178 -3.997966 -28.096715 2.534607 -1.428368 -22.290864 -2.313464 11.983670 3.127124 15.542462 -9.775066 -8.476853 0.028291 1.010173 0.205140 -12.022296 18.095711 13.554160 -21.242672 -2.247879 23.900981 13.533499 -20.207000 -7.494236 5.129582 -26.859134 -15.823035 61.928096 -82.722895 -30.046772 37.646683 -28.804533 18.095272 -14.882288 2.729082 -4.721673 16.961496 16.615505 -1.151595 53.726238 16.501048 26.790603 -168.036017 71.761810 -134.844880 -48.927245 11.535579 -10.250240 14.610559 8.022365 -1.653937 
